<?xml version="1.0" encoding="utf-8"?>
<!-- Generator: Adobe Illustrator 22.1.0, SVG Export Plug-In . SVG Version: 6.00 Build 0)  -->
<svg version="1.1" id="Layer_1" xmlns="http://www.w3.org/2000/svg" xmlns:xlink="http://www.w3.org/1999/xlink" x="0px" y="0px"
	 viewBox="0 0 57.9293442 63.6666679" style="enable-background:new 0 0 57.9293442 63.6666679;" xml:space="preserve">
<style type="text/css">
	.st0{display:none;}
	.st1{display:inline;fill:#0B2033;}
	.st2{fill:#333333;}
	.st3{fill:url(#circle38_1_);}
	.st4{fill:url(#path47_1_);}
	.st5{fill:#FF6300;}
	.st6{fill:url(#path56_1_);}
	.st7{fill:#FFFFFF;}
	.st8{fill:#ACB3BA;}
	.st9{fill:#CFD6E0;}
	.st10{fill:url(#SVGID_1_);}
	.st11{fill:url(#SVGID_2_);}
	.st12{fill:url(#SVGID_3_);}
	.st13{fill:url(#SVGID_4_);}
	.st14{fill:url(#SVGID_5_);}
	.st15{fill:url(#SVGID_6_);}
	.st16{fill:url(#SVGID_7_);}
	.st17{fill:url(#SVGID_8_);}
	.st18{fill:url(#SVGID_9_);}
</style>
<g>
	<g>
		<linearGradient id="SVGID_1_" gradientUnits="userSpaceOnUse" x1="28.9646721" y1="23.1319256" x2="28.9646721" y2="36.6003952">
			<stop  offset="0" style="stop-color:#FF6300"/>
			<stop  offset="1" style="stop-color:#BF440C"/>
		</linearGradient>
		<circle class="st10" cx="28.9646721" cy="23.8977222" r="6.6050296"/>
		<g>
			<linearGradient id="SVGID_2_" gradientUnits="userSpaceOnUse" x1="18.1888351" y1="39.3659973" x2="39.0822983" y2="50.6889076">
				<stop  offset="0" style="stop-color:#FF6300"/>
				<stop  offset="1" style="stop-color:#773303"/>
			</linearGradient>
			<path class="st11" d="M24.0558071,32.9164047l-0.1816101-0.0872269L5.6874027,24.0935326l-0.0975924-0.0468941
				c-0.1746497-0.0701962-0.364306-0.111021-0.5640326-0.111021c-0.8375092,0-1.5164609,0.6789532-1.5164609,1.5164623v12.3684845
				c0,1.955307,1.4806719,4.1245575,3.3817768,5.0486488l0.0433908,0.0208321l20.4338169,9.8149376V37.9282761
				C27.3683014,35.9969635,25.9230976,33.8592072,24.0558071,32.9164047z"/>
			<path class="st5" d="M27.3683014,40.4337959l0.0128593-2.6132317c0,7.8073044-11.6831169,15.7575684-18.7027206,19.829998
				c-0.0064173,0.0037498-0.013032,0.0076027-0.0194492,0.0113525C8.2572412,57.9347,7.9931197,58.3949699,7.9931197,58.917141
				c0,0.8375092,0.6789517,1.5164642,1.5164609,1.5164642c3.0649338,0,6.9494591,0,10.7903442,0
				c7.7059364,0,7.0683765-7.1502724,7.0683765-7.1502724V40.4337959z"/>
			
				<linearGradient id="SVGID_3_" gradientUnits="userSpaceOnUse" x1="-1806.2503662" y1="39.3659973" x2="-1785.3569336" y2="50.6889076" gradientTransform="matrix(-1 0 0 1 -1766.5098877 0)">
				<stop  offset="0" style="stop-color:#FF6300"/>
				<stop  offset="1" style="stop-color:#773303"/>
			</linearGradient>
			<path class="st12" d="M33.8735352,32.9164047l0.1816101-0.0872269l18.1867943-8.7356453l0.0975952-0.0468941
				c0.1746483-0.0701962,0.3643036-0.111021,0.5640297-0.111021c0.8375092,0,1.5164642,0.6789532,1.5164642,1.5164623v12.3684845
				c0,1.955307-1.4806747,4.1245575-3.3817787,5.0486488l-0.0433922,0.0208321l-20.433815,9.8149376V37.9282761
				C30.5610428,35.9969635,32.0062447,33.8592072,33.8735352,32.9164047z"/>
			<path class="st5" d="M30.5610428,40.4337959l-0.0128593-2.6132317c0,7.8073044,11.6831169,15.7575684,18.7027206,19.829998
				c0.0064163,0.0037498,0.013031,0.0076027,0.0194511,0.0113525c0.4017487,0.2727852,0.6658707,0.7330551,0.6658707,1.2552261
				c0,0.8375092-0.6789551,1.5164642-1.5164642,1.5164642c-3.0649338,0-6.9494553,0-10.7903442,0
				c-7.7059345,0-7.0683746-7.1502724-7.0683746-7.1502724V40.4337959z"/>
		</g>
	</g>
</g>
<g>
	<path class="st7" d="M38.3283348,10.1730938c0-2.0837755-1.6893997-3.77318-3.7731781-3.77318
		c-0.7194595,0-1.3856239,0.2025166-1.9558678,0.5489244c-0.8900051-1.0019193-2.1850319-1.6361117-3.6346169-1.6361117
		c-1.4442558,0-2.7446194,0.6341925-3.6346169,1.6361117c-0.5702419-0.3464079-1.2364101-0.5489244-1.9558735-0.5489244
		c-2.0837727,0-3.7731743,1.6894045-3.7731743,3.77318c0,1.6041355,1.001915,2.9684467,2.408865,3.5120411
		c0,2.9791069,0,5.9582119,0,8.9373188c4.5779114-1.0232372,9.3210297-1.0232372,13.898941,0c0-2.9791069,0-5.9582119,0-8.9373188
		C37.3264236,13.1415405,38.3283348,11.7772293,38.3283348,10.1730938L38.3283348,10.1730938z"/>
	<path class="st8" d="M35.9194717,19.9258022v2.7019806c-4.5779114-1.0232334-9.3263588-1.0232334-13.8989429,0v-2.7019806
		C26.5984402,18.9025669,31.3415604,18.9025669,35.9194717,19.9258022L35.9194717,19.9258022z"/>
	<path class="st9" d="M20.890707,11.1163874c0.0479679,0.1065874,0.1012592,0.2131748,0.1652126,0.309104
		c0.0586185,0.0959272,0.1279011,0.1918564,0.1971836,0.2824535c0.0692825,0.090601,0.1492214,0.1758699,0.2291603,0.2558107
		c0.0799446,0.0799398,0.1705399,0.1545506,0.2611427,0.2238312c0.0905952,0.0639544,0.1865273,0.1279039,0.2877789,0.1865301
		c0.1012592,0.0532904,0.1971893,0.1065855,0.3037777,0.1438904c0.1012516,0.0426359,0.2131748,0.0746107,0.3197632,0.1065874
		c0.1065807,0.0319757,0.218502,0.0479641,0.3304176,0.0639505c0.1119156,0.0106602,0.2238331,0.0213184,0.3304195,0.0213184
		c0.0532913,0,0.1119156,0,0.1705341-0.0053291c0.053297-0.0053291,0.1065884-0.0106573,0.1652126-0.0159893
		c0.218504-0.0319748,0.4316788-0.0905972,0.6341896-0.1705379c0.1012592-0.042635,0.1971912-0.0906,0.2931213-0.1438904
		c0.0905952-0.0532942,0.1918545-0.1172476,0.2877789-0.1812l0.5915623-0.3783827l0.1279011-0.0852709l0.1065884,0.1172457
		l0.3464108,0.3783846c0.1119156,0.1225748,0.2291603,0.2558088,0.3410759,0.3730545
		c0.1172447,0.127903,0.2291603,0.218504,0.3570671,0.3250914c0.1279011,0.0959272,0.261137,0.1918545,0.3997021,0.2717953
		c0.5489216,0.3357487,1.1937752,0.5116186,1.8386211,0.5062866c0.0692825-0.0053282,0.1705418,0,0.2451515-0.0106564
		c0.0746117-0.0053301,0.1545506-0.0106583,0.2344894-0.0213175c0.1598835-0.0213194,0.3144341-0.0532932,0.4743176-0.0959282
		c0.3090992-0.0852709,0.607542-0.2131739,0.8846703-0.3783846c0.2771225-0.1652098,0.5329304-0.3623962,0.7567692-0.5968866
		c0.1119156-0.1172457,0.2291603-0.2504797,0.3410759-0.3730545l0.3464108-0.3783846l0.1065826-0.1172457l0.1279068,0.0852709
		l0.5915565,0.3783827c0.1012573,0.0639524,0.1971893,0.1279058,0.2931137,0.1812
		c0.0906029,0.0532904,0.1918602,0.1012554,0.2931137,0.1438904c0.2025185,0.085269,0.4156914,0.1438913,0.6341934,0.1705379
		c0.1065903,0.0159893,0.223835,0.0266476,0.3304214,0.0213184c0.1225739,0,0.2238312-0.0106583,0.3357468-0.0159864
		c0.1119156-0.0159903,0.218502-0.0373068,0.3304176-0.0639534c0.1065903-0.0266476,0.2185059-0.0586224,0.3197632-0.1065865
		c0.1065865-0.0373068,0.2078476-0.0906,0.303772-0.1438942c0.1012573-0.0532923,0.1918602-0.1172457,0.2877846-0.1865263
		c0.0906029-0.0692806,0.175869-0.1438923,0.2611389-0.2238331c0.079937-0.0799408,0.1598778-0.1652098,0.2291641-0.2558088
		c0.0746117-0.0905991,0.1385651-0.1865263,0.1971855-0.2824554c0.0639534-0.0959272,0.1119156-0.2025146,0.1652107-0.3091021
		c-0.0373039,0.1119156-0.0799446,0.218503-0.1279068,0.3250904c-0.053299,0.1065874-0.1065865,0.2131739-0.1705399,0.3091011
		c-0.0639496,0.1012592-0.1385574,0.1918583-0.2131767,0.2824564c-0.074604,0.0905981-0.1652069,0.1758699-0.250473,0.2558107
		c-0.0906029,0.0799408-0.1865273,0.1545496-0.2824554,0.2185011c-0.1012611,0.0639524-0.2025185,0.1279068-0.3144341,0.1812
		c-0.1065903,0.0586205-0.2185059,0.1012554-0.3357506,0.1385612c-0.1172447,0.0426331-0.2344856,0.0692806-0.351738,0.090601
		c-0.1225739,0.0213165-0.2504807,0.0373049-0.3623886,0.0426331c-0.1225815,0.0106583-0.2451515,0.0053301-0.367733,0
		c-0.2451515-0.0159883-0.4902954-0.0692806-0.7194557-0.1545506c-0.1172523-0.0426359-0.2291679-0.0905981-0.3410835-0.1492233
		c-0.1065865-0.0586224-0.20784-0.1172438-0.3090973-0.175868l-0.6022186-0.3517361l0.2398224-0.0373049l-0.3357468,0.3890409
		c-0.1119232,0.1279058-0.2185097,0.2558088-0.3410835,0.3890409c-0.1172447,0.133235-0.2504807,0.2558107-0.3890457,0.3730545
		c-0.1385574,0.1119194-0.2824497,0.223834-0.437006,0.3144341c-0.3037701,0.1918554-0.6395168,0.3357477-0.9859295,0.437007
		c-0.175869,0.0479622-0.351738,0.0905991-0.5276012,0.1119156c-0.0906029,0.0159874-0.1811981,0.0213184-0.271801,0.0319757
		c-0.0959244,0.0106602-0.165205,0.0053301-0.2664642,0.0106602c-0.7247925-0.0053301-1.4442558-0.2078457-2.0571327-0.5862293
		c-0.1545486-0.0905991-0.2984428-0.2025156-0.437006-0.3144312c-0.1332302-0.1119175-0.2771225-0.2451515-0.3890381-0.3730545
		c-0.1225796-0.133234-0.2238312-0.261138-0.3410759-0.3890429l-0.3357544-0.3890429l0.2398243,0.0373058l-0.6075478,0.351737
		c-0.1012592,0.0586243-0.1971836,0.1172447-0.3090992,0.175868c-0.1119156,0.0586224-0.2238388,0.1065874-0.3410835,0.1492233
		c-0.2291603,0.0852671-0.4743118,0.1385603-0.7194633,0.1545506c-0.0586185,0.0053282-0.1225719,0.0053282-0.1865273,0.0106573
		c-0.0586185,0-0.1172428,0-0.1811981-0.0053291c-0.1225719-0.0053282-0.2451439-0.0213184-0.3623943-0.0426331
		c-0.1172447-0.0266485-0.2398167-0.0532942-0.3517342-0.0905991c-0.1119156-0.0426359-0.229166-0.0852709-0.3357525-0.1385641
		c-0.1065884-0.0532942-0.2131691-0.1172466-0.3144283-0.1811972c-0.1012592-0.0692816-0.1918621-0.1438942-0.2824574-0.2185049
		c-0.0852661-0.0799389-0.175869-0.1652088-0.2504807-0.2558079c-0.0746098-0.0905991-0.1492195-0.1811981-0.2131748-0.2824554
		c-0.0692806-0.0959282-0.1225719-0.2025156-0.1705341-0.309103C20.9706459,11.3402205,20.9280128,11.2283049,20.890707,11.1163874
		L20.890707,11.1163874z"/>
</g>
</svg>
