<?xml version="1.0" encoding="utf-8"?>
<!-- Generator: Adobe Illustrator 22.1.0, SVG Export Plug-In . SVG Version: 6.00 Build 0)  -->
<svg version="1.1" id="Layer_1" xmlns="http://www.w3.org/2000/svg" xmlns:xlink="http://www.w3.org/1999/xlink" x="0px" y="0px"
	 viewBox="0 0 294.3333435 75.3333359" style="enable-background:new 0 0 294.3333435 75.3333359;" xml:space="preserve">
<style type="text/css">
	.st0{display:none;}
	.st1{display:inline;fill:#0B2033;}
	.st2{fill:#333333;}
	.st3{fill:url(#circle38_1_);}
	.st4{fill:url(#path47_1_);}
	.st5{fill:#FF6300;}
	.st6{fill:url(#path56_1_);}
	.st7{fill:#FFFFFF;}
	.st8{fill:#ACB3BA;}
	.st9{fill:#CFD6E0;}
	.st10{fill:url(#SVGID_1_);}
	.st11{fill:url(#SVGID_2_);}
	.st12{fill:url(#SVGID_3_);}
	.st13{fill:url(#SVGID_4_);}
	.st14{fill:url(#SVGID_5_);}
	.st15{fill:url(#SVGID_6_);}
	.st16{fill:url(#SVGID_7_);}
	.st17{fill:url(#SVGID_8_);}
	.st18{fill:url(#SVGID_9_);}
</style>
<g>
	<g>
		<path class="st7" d="M129.3620605,56.3191185l-0.0861511-0.1453514c-0.0157928-0.0226936-0.0322266-0.0443954-0.0407715-0.052948
			l-7.9798889-11.4893723l6.9860992-9.944767l0.0184174-0.0295982c0.1164093-0.1440353,0.1795502-0.3216133,0.1795502-0.5054398
			c0-0.4018555-0.3005676-0.740242-0.6886139-0.7991066l-5.7627792-0.0101967c-0.2255859,0-0.4406586,0.0956955-0.5945587,0.2637405
			l-0.0552444,0.0657692c-0.0151291,0.0200577-0.0282822,0.0401192-0.0598526,0.089447l-3.7673111,5.6506348l-3.8422852-5.6999626
			l-0.0289383-0.037159c-0.1381226-0.1894188-0.3512115-0.3087921-0.5847015-0.3285217l-5.9469299-0.0039482
			c-0.4459229,0-0.8089676,0.3630524-0.8089676,0.8093033c0,0.1713295,0.0545883,0.3360825,0.1552124,0.4732132
			l7.0393753,10.1443787l-7.7477188,11.3318558c-0.127594,0.1479836-0.1979675,0.3347702-0.1979675,0.5258331
			c0,0.4462471,0.3630524,0.8092995,0.8089752,0.8092995h5.7726364l0.0710373-0.0006561l0.0032883-0.0036201
			c0.2880707-0.0276222,0.5399704-0.2068443,0.659668-0.4732132l4.5565567-6.8762627l4.5900879,6.9275627l0.0197372,0.0240059
			c0.1315384,0.2252617,0.3617325,0.3725891,0.6175766,0.3975792l5.9804688,0.0046043l0.1052399-0.0026321l0.0052643-0.0105209
			c0.3860626-0.0641251,0.6748047-0.3959351,0.6748047-0.7961464c0-0.1016159-0.0197449-0.2009277-0.058548-0.2962952
			L129.3620605,56.3191185z"/>
		<path class="st7" d="M144.7121429,52.1986237l-0.0565643-0.0299263c-0.19664-0.0657692-0.5978394,0.0144691-0.587326,0.0147972
			c-0.3314819,0.0302544-0.681366,0.0453835-1.0404816,0.0453835c-1.0509949,0-1.7534332-0.1690292-2.0862274-0.5028152
			c-0.3327942-0.3327942-0.5018158-1.0345612-0.5018158-2.0862274V38.0445709l3.969223,0.0121689
			c0.0355072,0,0.0631409-0.0082207,0.0762939-0.012825c0.4176331-0.0407791,0.7326813-0.38311,0.7326813-0.7964783v-3.0957947
			c0-0.4462509-0.3630524-0.8093033-0.8089752-0.8093033h-3.969223v-6.3487854
			c-0.020401-0.433754-0.3735809-0.7737846-0.8037109-0.7737846h-5.2510834c-0.4386902,0-0.8010864,0.3581181-0.8037109,0.7665501
			l-0.003952,6.35602h-3.1424866c-0.446579,0-0.8096313,0.3630524-0.8096313,0.8093033v3.0957947
			c0,0.4133682,0.315033,0.7556992,0.7293854,0.7964783l0.080246,0.012825c0.0355072,0,0.0631256-0.0078926,0.059845-0.0121689
			h3.0826416v13.8465767c0,1.2193756,0.20784,2.2203979,0.6182404,2.974781
			c0.4104004,0.7602997,0.9806366,1.3545341,1.6949005,1.7659264c0.7030792,0.4067879,1.5265198,0.6846657,2.4479523,0.8257408
			c0.9049988,0.1381187,1.8803711,0.2081642,2.8978271,0.2081642c0.6327209,0,1.3002777-0.0154572,1.9829712-0.0463676
			c0.3656921-0.0161133,0.7294006-0.0453835,1.1430817-0.0917511l0.0467072,0.0055923
			c0.085495,0,0.1571808-0.0217056,0.2301941-0.0440674c0.3459473-0.1039162,0.5787811-0.4113922,0.5787811-0.7652321v-3.7702713
			l-0.0019836-0.1252937C145.1712189,52.5393105,144.980484,52.3022079,144.7121429,52.1986237z"/>
		<path class="st7" d="M191.3280029,35.4535599c-0.6576996-0.8615875-1.569931-1.544281-2.7103729-2.029007
			c-1.1351929-0.4817657-2.6031799-0.7257729-4.3625336-0.7257729c-1.3963013,0-2.7814178,0.3226013-4.1165466,0.9589272
			c-1.250946,0.5958786-2.297348,1.5357323-3.114212,2.7955589l0.0105133-2.3039284
			c0-0.0328827-0.0078888-0.0585365-0.0098572-0.0585365h-0.0006561c-0.0309143-0.4189529-0.3683167-0.7405701-0.7458344-0.7428703
			l-4.9991913-0.0055923c-0.4380341,0.0082207-0.7944946,0.370285-0.7944946,0.8069992v22.4775848
			c0,0.4462471,0.3630371,0.8092995,0.80896,0.8092995h5.2510834c0.4242249,0,0.7760925-0.3354263,0.7984467-0.7425423
			c0.0032959-0.0115128,0.0105286-0.0358467,0.0032959-0.102932V44.8152733c0-2.3723259,0.3906708-4.0932007,1.1608429-5.1149406
			c0.7589874-1.007267,2.012558-1.517971,3.7258759-1.517971c1.492981,0,2.5426636,0.4607162,3.1207886,1.3690033
			c0.5919342,0.9336052,0.8925018,2.3798904,0.8925018,4.2987328l0.0032806,12.7100677
			c-0.0032806,0.0115089-0.0105133,0.0358429-0.0105133,0.0667572l0.0072327,0.0460396
			c0.02565,0.4278336,0.3775177,0.7632599,0.8017426,0.7632599h5.2510834c0.4459076,0,0.80896-0.3630524,0.80896-0.8092995
			V42.655056c0-1.4722633-0.132843-2.8366661-0.3946228-4.0560417
			C192.4493866,37.37043,191.983078,36.3121872,191.3280029,35.4535599z"/>
		<path class="st7" d="M268.4467163,56.4164581l0.1414185-0.1049042c-0.1072083-0.3614082-0.1914062-0.7889137-0.2506104-1.2706795
			c-0.1210022-0.9668198-0.1828308-1.9954643-0.1828308-3.0576515V39.6223946c0-1.4699593-0.3354187-2.6705933-0.9977417-3.5693398
			c-0.6563721-0.8905296-1.5120544-1.5959129-2.5433044-2.0967522c-1.0227356-0.4949188-2.168457-0.8323212-3.4049377-1.0029945
			c-2.6011963-0.3558159-5.118866-0.3577881-7.6148529,0.1394348c-1.3167114,0.2637367-2.5170135,0.7113037-3.5680237,1.3302002
			c-1.0595551,0.6235008-1.9441681,1.4600945-2.6281738,2.4864349c-0.557724,0.8365974-0.9240723,1.8856316-1.0950775,3.1359177
			c-0.0098572,0.0355186-0.021698,0.0799141-0.021698,0.1341743l0.0072327,0.0470238
			c0.02565,0.421917,0.361084,0.7481346,0.7445221,0.7533951l6.0350647,0.0055923l0.0144653-0.1525879
			c0.1164093-1.2312164,0.526825-2.118782,1.2200317-2.6380386c0.7024231-0.5268173,1.6889801-0.7938423,2.9313812-0.7938423
			c0.5662842,0,1.1062317,0.038147,1.6061096,0.1131248c0.4814148,0.0730019,0.9089355,0.2200012,1.2713318,0.4373703
			c0.3551636,0.2130928,0.6438904,0.5166245,0.8583069,0.9026947c0.2150574,0.3863983,0.3235779,0.9234123,0.3235779,1.6031456
			c0.0282898,0.624485-0.1473389,1.0825729-0.5360413,1.4012299c-0.4064331,0.3344421-0.9720764,0.5939064-1.6797485,0.7708244
			c-0.7234802,0.1808701-1.5653381,0.3186569-2.5032043,0.4090919c-0.9444733,0.0917473-1.921814,0.216053-2.9044189,0.3696289
			c-0.9773407,0.152256-1.96521,0.3623924-2.9359741,0.624157c-0.9793243,0.2643967-1.8626099,0.6665802-2.6255493,1.1957016
			c-0.7695007,0.5343819-1.4055023,1.2571945-1.8895721,2.1487083c-0.4860382,0.892498-0.7326813,2.0405159-0.7326813,3.4121513
			c0,1.2453537,0.2137604,2.3358231,0.6360016,3.241478c0.4222412,0.9089432,1.0181274,1.6715469,1.7711945,2.2664375
			c0.749115,0.5935745,1.6350403,1.0365372,2.6327667,1.3167152c0.9898376,0.2785378,2.0717621,0.4199409,3.2154999,0.4199409
			c1.4798279,0,2.9497986-0.2190132,4.3691101-0.6504631c1.3167114-0.4008713,2.4900513-1.0875092,3.4924011-2.043148
			c0.0315552,0.2818222,0.0749817,0.561348,0.1302185,0.8349495c0.0203857,0.1045761,0.0493164,0.2061882,0.0789185,0.3078041
			c0.0151367,0.0526161,0.0302429,0.1049042,0.0401306,0.1259499v0.013813c0,0.1305542,0.0354919,0.2581482,0.1078491,0.3893585
			c0.1466675,0.2657089,0.4084473,0.4245453,0.7011108,0.4245453h5.1872864c0.4459229,0,0.80896-0.3630524,0.80896-0.8092995
			c0-0.1026039-0.0256348-0.1917191-0.0513-0.2653847L268.4467163,56.4164581z M252.3475189,50.5126076
			c0-0.5823975,0.1012878-1.0658073,0.3012238-1.4367485c0.2012634-0.3735733,0.4709167-0.6872978,0.8017426-0.9319611
			c0.336731-0.2482834,0.7379303-0.448555,1.1924133-0.5958786c0.4715576-0.1512718,0.9516907-0.2729454,1.4252167-0.3617363
			c0.5064392-0.089119,1.028656-0.166069,1.5528564-0.2282219c0.5261536-0.0621529,1.0332336-0.1400909,1.506134-0.2315102
			c0.4781494-0.0927353,0.9339294-0.2104645,1.3535461-0.3502274c0.3045044-0.1016121,0.5767822-0.2328262,0.8122559-0.3913307
			v2.0924759c0,0.3558159-0.038147,0.8438301-0.1138,1.4499016c-0.072998,0.5866699-0.2749023,1.1762962-0.599823,1.7524452
			c-0.3215942,0.5698967-0.8273621,1.0674477-1.503479,1.4788399c-0.6728516,0.4100761-1.6482239,0.6182365-2.8991699,0.6182365
			c-0.5097046,0-1.009552-0.0453796-1.485733-0.1348267c-0.4676208-0.0874748-0.880661-0.2420349-1.2272644-0.4590759
			c-0.3426666-0.2144127-0.616272-0.5100479-0.8148956-0.8800049
			C252.4488068,51.5333557,252.3475189,51.065731,252.3475189,50.5126076z"/>
		<path class="st7" d="M276.1766663,24.2900753h-5.2438354c-0.4459229,0-0.8089905,0.3630505-0.8089905,0.8092995v31.5275478
			c0,0.4462471,0.3630676,0.8092995,0.8089905,0.8092995h5.2438354c0.4459229,0,0.8089905-0.3630524,0.8089905-0.8092995V25.0993748
			C276.9856567,24.6531258,276.6225891,24.2900753,276.1766663,24.2900753z"/>
		<path class="st7" d="M168.4183197,41.6481133c-0.4334259-1.6988411-1.1457214-3.2335854-2.1177979-4.5611534
			c-0.9766846-1.3325043-2.2414551-2.4081726-3.7574463-3.1967545c-1.518631-0.7905579-3.3227081-1.1914253-5.3622437-1.1914253
			c-1.821167,0-3.5055389,0.3295059-5.0064087,0.9789886c-1.4982452,0.6484909-2.807724,1.5501976-3.8916168,2.68013
			c-1.0832367,1.1296005-1.9303589,2.4864388-2.5170288,4.032032c-0.587326,1.5426407-0.8845978,3.2322731-0.8845978,5.0222054
			c0,1.8501129,0.2893829,3.5703278,0.8609314,5.1126366c0.5708771,1.545269,1.3943176,2.8942146,2.4479523,4.009346
			c1.0529785,1.1157875,2.3565521,1.9875717,3.8738556,2.5913391c1.5127258,0.6024551,3.2345734,0.9079552,5.1169128,0.9079552
			c2.7156525,0,5.0656128-0.6274452,6.984787-1.8649101c1.7054138-1.0996742,3.0385742-2.871521,3.9619904-5.2655525
			l0.0585327-0.1706734c0.0144806-0.048996,0.0315704-0.1098366,0.0315704-0.1808662
			c0-0.4334259-0.3413391-0.7866096-0.7497711-0.8000946l-0.0605164-0.0042725l-4.3500366,0.0036163
			c-0.009201-0.0026321-0.030899-0.0085487-0.0585327-0.0085487l-0.0907593,0.0095329l-0.003952,0.0026321
			c-0.2630768,0.0309143-0.4926147,0.1864586-0.6169128,0.4173126l-0.02565,0.0476837
			c-0.2676849,0.5682526-0.7879333,1.123024-1.5462646,1.6485252c-0.9168243,0.6356697-2.0283356,0.957943-3.3042755,0.957943
			c-1.7850037,0-3.1681519-0.4633522-4.1106415-1.3772278c-0.9168243-0.8875656-1.4377289-2.335495-1.5482178-4.3056374h16.3622742
			c0.3801575,0,0.7011108-0.2663689,0.7885895-0.6794052c0.0085449-0.0325546,0.0210419-0.0772781,0.0210419-0.1298943
			c0-0.0430794-0.0098724-0.0782661-0.0190735-0.0897789C168.9477692,44.631115,168.7839966,43.0848618,168.4183197,41.6481133z
			 M154.4783478,38.4628677c0.6616516-0.3383865,1.5087585-0.5100441,2.5189972-0.5100441
			c1.5357208,0,2.6919708,0.4143486,3.4371338,1.2318726c0.7241364,0.7961464,1.245697,1.9681702,1.5515289,3.4858131h-10.2279053
			c0.0407715-0.4002113,0.1341705-0.8523788,0.2775421-1.3472977c0.1604767-0.5567436,0.4439545-1.0937576,0.842514-1.5959129
			C153.2754059,39.2277756,153.8134155,38.8025703,154.4783478,38.4628677z"/>
		<path class="st7" d="M244.1709747,41.6484413c-0.4320984-1.6978531-1.1443939-3.2325974-2.1177979-4.5614815
			c-0.9766846-1.3325043-2.2407837-2.4078445-3.7567749-3.1967545c-1.518631-0.7905579-3.3227081-1.1914253-5.3628998-1.1914253
			c-1.8205109,0-3.5048828,0.3295059-5.006424,0.9789886c-1.49823,0.6484909-2.807724,1.5501976-3.8916168,2.68013
			c-1.0838776,1.1309166-1.9309998,2.4874229-2.5170135,4.032032c-0.5866699,1.5416527-0.8839569,3.2312851-0.8839569,5.0222054
			c0,1.851429,0.2893982,3.5716438,0.8602753,5.1126366c0.5708923,1.545269,1.3943329,2.8942146,2.4479675,4.009346
			c1.0529785,1.1154594,2.3565369,1.9872437,3.8738556,2.5913391c1.5127106,0.6024551,3.2345734,0.9079552,5.1169128,0.9079552
			c2.7156525,0,5.0656128-0.6274452,6.984787-1.8649101c1.7054138-1.0996742,3.0385742-2.871521,3.9619904-5.2655525
			l0.0585327-0.1706734c0.0144653-0.048996,0.0315704-0.1098366,0.0315704-0.1808662
			c0-0.4334259-0.3413544-0.7866096-0.7484589-0.7997665l-0.0611725-0.0046005l-4.3500366,0.0036163
			c-0.0098572-0.0026321-0.0315704-0.0085487-0.0591888-0.0085487l-0.0979919,0.0098648l-0.003952,0.0032883
			c-0.2578125,0.0328827-0.4814453,0.1841545-0.6050873,0.408432l-0.0302582,0.0555763
			c-0.2676849,0.5682526-0.7879181,1.123024-1.5462494,1.6485252c-0.9161835,0.6356697-2.0276947,0.957943-3.3042908,0.957943
			c-1.7850037,0-3.1681366-0.4633522-4.1106262-1.3772278c-0.9161835-0.8869095-1.4370728-2.3348351-1.548233-4.3056374h16.3629456
			c0.3794861,0,0.7004547-0.2663689,0.787262-0.676445c0.0098724-0.0351868,0.0217133-0.0789261,0.0217133-0.1328545
			c0-0.0430794-0.0098724-0.0782661-0.0190735-0.0897789C244.7004242,44.631115,244.5366669,43.0848618,244.1709747,41.6484413z
			 M230.2310181,38.4628677c0.6616364-0.3383865,1.5087585-0.5100441,2.5189819-0.5100441
			c1.5357361,0,2.6919708,0.4143486,3.437149,1.2318726c0.7241364,0.7954903,1.2456818,1.9675102,1.5515137,3.4858131h-10.2279053
			c0.0407867-0.4002113,0.1341705-0.8523788,0.2775574-1.3472977c0.1598206-0.5554314,0.4439392-1.0924416,0.842514-1.5959129
			C229.0280762,39.2277756,229.5660706,38.8025703,230.2310181,38.4628677z"/>
		<path class="st7" d="M106.4286957,50.7322769c0.014473-0.048996,0.0315704-0.1098366,0.0315704-0.1808662
			c0-0.4334259-0.3413467-0.7866096-0.7484589-0.7997665l-0.0611725-0.0046005l-4.350029,0.0036163
			c-0.0092087-0.0026321-0.0309143-0.0085487-0.0591965-0.0085487l-0.0907593,0.0095329l-0.0039444,0.0026321
			c-0.2604523,0.0305824-0.4873581,0.1828423-0.6123199,0.40942l-0.0302582,0.0555763
			c-0.2676849,0.5682526-0.7879257,1.123024-1.5462494,1.6485252c-0.9161835,0.6356697-2.0276947,0.957943-3.3042908,0.957943
			c-1.7843475,0-3.1674881-0.4633522-4.1106339-1.3772278c-0.9165039-0.8869095-1.4370728-2.3348351-1.5482254-4.3056374h16.3622818
			c0.3801498,0,0.7011108-0.2663689,0.7885818-0.6794052c0.0085526-0.0325546,0.0210495-0.0772781,0.0210495-0.1298943
			c0-0.0430794-0.0098648-0.0782661-0.0190735-0.0897789c0.0427475-1.6126823-0.1210175-3.1589355-0.486702-4.5956841
			c-0.4334259-1.6988411-1.1457138-3.2335854-2.1177979-4.5611534c-0.9766846-1.3325043-2.2414398-2.4081726-3.7574463-3.1967545
			c-1.5179672-0.7905579-3.3220444-1.1914253-5.3622284-1.1914253c-1.8208466,0-3.5052185,0.3295059-5.0060959,0.9789886
			c-1.4988937,0.6484909-2.8083801,1.5501976-3.8922729,2.68013c-1.0835571,1.1305885-1.9303513,2.4870949-2.5170212,4.032032
			c-0.5863342,1.5429688-0.8839493,3.2326012-0.8839493,5.0222054c0,1.850769,0.2893906,3.5709877,0.8606033,5.1129646
			c0.5715408,1.5455971,1.3949814,2.8945427,2.4479599,4.0090179c1.0529785,1.1157875,2.3565445,1.9875717,3.8738632,2.5913391
			c1.5123825,0.6024551,3.2339096,0.9079552,5.1169128,0.9079552c2.7156448,0,5.0656052-0.6274452,6.9847794-1.8649101
			c1.7054214-1.0996742,3.0385818-2.871521,3.9619904-5.2655525L106.4286957,50.7322769z M92.7202377,38.4628677
			c0.6623077-0.3383865,1.5100861-0.5100441,2.5196533-0.5100441c1.5357285,0,2.6919708,0.4143486,3.4371414,1.2318726
			c0.7241287,0.7961464,1.2456894,1.9681702,1.5515213,3.4858131H90.0009766
			c0.0407791-0.4015236,0.1338425-0.8536949,0.2772217-1.3472977c0.1608047-0.5567436,0.4442749-1.0937576,0.8428421-1.5959129
			C91.5179596,39.2274475,92.0559616,38.8022423,92.7202377,38.4628677z"/>
		<path class="st7" d="M218.2325745,24.2900753h-5.2510834c-0.4242096,0-0.7760925,0.3350983-0.7984467,0.7428722
			c-0.0032959,0.0115089-0.0105286,0.0355167-0.0032959,0.102602v10.8533764
			c-0.727417-1.0273285-1.6883087-1.8261032-2.8616486-2.3779144c-1.289093-0.6054153-2.6663208-0.9122314-4.0928802-0.9122314
			c-1.7652588,0-3.3378296,0.3544998-4.6729584,1.0536346c-1.331192,0.6965065-2.4558563,1.6320877-3.3411255,2.7804298
			c-0.8819733,1.1453857-1.5561218,2.4857826-2.0033569,3.983036c-0.4472351,1.4936409-0.6734772,3.0639-0.6734772,4.6667175
			c0,1.6636543,0.2262421,3.2875175,0.672821,4.8255501c0.4472351,1.5432968,1.1207275,2.9294014,2.0020447,4.1201668
			c0.8859253,1.1957016,2.0263824,2.1556168,3.3904419,2.8527794c1.3647308,0.6981468,2.9675598,1.0523186,4.7637329,1.0523186
			c1.578476,0,3.0168762-0.2910309,4.2743988-0.8652039c1.1509705-0.5258331,2.1125336-1.3640709,2.8636322-2.4953156
			l-0.0059204,1.9375839c0,0.0207176,0.0019684,0.0411072,0.0065765,0.0713615
			c0.0355072,0.4169846,0.3775177,0.74123,0.7866058,0.753727l4.9511719,0.0006561
			c0.4498749-0.0141411,0.8017426-0.3768616,0.8017426-0.8257446V25.0993748
			C219.0415497,24.6531258,218.6784973,24.2900753,218.2325745,24.2900753z M201.7131042,48.0850334
			c-0.2104645-0.8994064-0.3170166-1.813942-0.3170166-2.7186089c0-0.9645157,0.0993195-1.9033852,0.2946472-2.7902946
			c0.1946869-0.8813171,0.5117035-1.6748352,0.9438019-2.3588448c0.4255371-0.6771011,1.0016785-1.2302284,1.7106781-1.6445808
			c0.705719-0.4113922,1.5896759-0.6198807,2.6268616-0.6198807c1.0352173,0,1.9020691,0.2081604,2.5775299,0.6182365
			c0.6794128,0.4143524,1.2410889,0.9612312,1.6692505,1.6248512c0.4307861,0.6701965,0.7399139,1.4545059,0.9181519,2.3315506
			c0.1808624,0.8898659,0.2722778,1.8293915,0.2722778,2.792923c0,0.9632034-0.0914154,1.9106216-0.2722778,2.8162766
			c-0.178894,0.8957901-0.4814453,1.7050896-0.8984222,2.4048843c-0.4130402,0.6925583-0.9734039,1.2529182-1.6646423,1.6649666
			c-0.68927,0.4110641-1.5646667,0.6192284-2.6018677,0.6192284c-0.9760284,0-1.8198547-0.2157288-2.5084686-0.6412582
			c-0.6945343-0.4278374-1.279892-0.9980621-1.739624-1.6952248
			C202.2609711,49.788147,201.9216003,48.9795036,201.7131042,48.0850334z"/>
	</g>
	<g>
		<linearGradient id="SVGID_1_" gradientUnits="userSpaceOnUse" x1="42.8607941" y1="25.1319256" x2="42.8607941" y2="38.6003952">
			<stop  offset="0" style="stop-color:#FF6300"/>
			<stop  offset="1" style="stop-color:#BF440C"/>
		</linearGradient>
		<circle class="st10" cx="42.8607941" cy="25.8977222" r="6.6050296"/>
		<g>
			<linearGradient id="SVGID_2_" gradientUnits="userSpaceOnUse" x1="32.0849571" y1="41.3659973" x2="52.9784203" y2="52.6889076">
				<stop  offset="0" style="stop-color:#FF6300"/>
				<stop  offset="1" style="stop-color:#773303"/>
			</linearGradient>
			<path class="st11" d="M37.9519272,34.9164047l-0.1816101-0.0872269l-18.1867924-8.7356453l-0.0975933-0.0468941
				c-0.1746483-0.0701962-0.3643055-0.111021-0.5640316-0.111021c-0.8375092,0-1.5164604,0.6789532-1.5164604,1.5164623v12.3684845
				c0,1.955307,1.4806709,4.1245575,3.3817768,5.0486488l0.0433903,0.0208321l20.4338169,9.8149376V39.9282761
				C41.2644234,37.9969635,39.8192177,35.8592072,37.9519272,34.9164047z"/>
			<path class="st5" d="M41.2644234,42.4337959l0.0128593-2.6132317c0,7.8073044-11.6831169,15.7575684-18.7027206,19.829998
				c-0.0064182,0.0037498-0.0130329,0.0076027-0.0194511,0.0113525c-0.4017487,0.2727852-0.6658688,0.7330551-0.6658688,1.2552261
				c0,0.8375092,0.6789513,1.5164642,1.5164604,1.5164642c3.0649338,0,6.9494572,0,10.7903461,0
				c7.7059364,0,7.0683746-7.1502724,7.0683746-7.1502724V42.4337959z"/>
			
				<linearGradient id="SVGID_3_" gradientUnits="userSpaceOnUse" x1="-2106.1464844" y1="41.3659973" x2="-2085.2529297" y2="52.6889076" gradientTransform="matrix(-1 0 0 1 -2052.5097656 0)">
				<stop  offset="0" style="stop-color:#FF6300"/>
				<stop  offset="1" style="stop-color:#773303"/>
			</linearGradient>
			<path class="st12" d="M47.7696571,34.9164047l0.1816101-0.0872269l18.1867943-8.7356453l0.0975952-0.0468941
				c0.1746521-0.0701962,0.3643036-0.111021,0.5640335-0.111021c0.8375092,0,1.5164566,0.6789532,1.5164566,1.5164623v12.3684845
				c0,1.955307-1.4806671,4.1245575-3.3817749,5.0486488l-0.0433884,0.0208321l-20.4338188,9.8149376V39.9282761
				C44.4571648,37.9969635,45.9023666,35.8592072,47.7696571,34.9164047z"/>
			<path class="st5" d="M44.4571648,42.4337959l-0.0128593-2.6132317c0,7.8073044,11.6831169,15.7575684,18.7027206,19.829998
				c0.0064163,0.0037498,0.013031,0.0076027,0.0194511,0.0113525c0.4017487,0.2727852,0.6658707,0.7330551,0.6658707,1.2552261
				c0,0.8375092-0.6789551,1.5164642-1.5164642,1.5164642c-3.0649338,0-6.9494553,0-10.7903442,0
				c-7.7059364,0-7.0683746-7.1502724-7.0683746-7.1502724V42.4337959z"/>
		</g>
	</g>
</g>
<g>
	<path class="st7" d="M52.2244568,12.1730938c0-2.0837755-1.6893997-3.77318-3.7731781-3.77318
		c-0.7194595,0-1.3856239,0.2025166-1.9558678,0.5489244c-0.890007-1.0019193-2.1850319-1.6361117-3.6346169-1.6361117
		c-1.4442558,0-2.7446175,0.6341925-3.6346169,1.6361117c-0.5702438-0.3464079-1.2364082-0.5489244-1.9558716-0.5489244
		c-2.0837746,0-3.7731781,1.6894045-3.7731781,3.77318c0,1.6041355,1.001915,2.9684467,2.4088669,3.5120411
		c0,2.9791069,0,5.9582119,0,8.9373188c4.5779114-1.0232372,9.3210297-1.0232372,13.898941,0c0-2.9791069,0-5.9582119,0-8.9373188
		C51.2225456,15.1415405,52.2244568,13.7772293,52.2244568,12.1730938L52.2244568,12.1730938z"/>
	<path class="st8" d="M49.8155937,21.9258022v2.7019806c-4.5779114-1.0232334-9.3263588-1.0232334-13.8989449,0v-2.7019806
		C40.4945641,20.9025669,45.2376823,20.9025669,49.8155937,21.9258022L49.8155937,21.9258022z"/>
	<path class="st9" d="M34.7868271,13.1163874c0.0479698,0.1065874,0.1012611,0.2131748,0.1652145,0.309104
		c0.0586205,0.0959272,0.1278992,0.1918564,0.1971817,0.2824535c0.0692825,0.090601,0.1492233,0.1758699,0.2291603,0.2558107
		c0.0799484,0.0799398,0.1705437,0.1545506,0.2611465,0.2238312c0.0905952,0.0639544,0.1865234,0.1279039,0.2877769,0.1865301
		c0.1012573,0.0532904,0.1971893,0.1065855,0.3037758,0.1438904c0.1012535,0.0426359,0.2131767,0.0746107,0.3197632,0.1065874
		c0.1065826,0.0319757,0.2185059,0.0479641,0.3304214,0.0639505c0.1119156,0.0106602,0.2238312,0.0213184,0.3304176,0.0213184
		c0.0532913,0,0.1119156,0,0.170536-0.0053291c0.0532951-0.0053291,0.1065865-0.0106573,0.1652107-0.0159893
		c0.2185059-0.0319748,0.4316788-0.0905972,0.6341896-0.1705379c0.1012611-0.042635,0.1971893-0.0906,0.2931213-0.1438904
		c0.0905952-0.0532942,0.1918564-0.1172476,0.2877769-0.1812l0.5915642-0.3783827l0.127903-0.0852709l0.1065865,0.1172457
		l0.3464088,0.3783846c0.1119156,0.1225748,0.2291603,0.2558088,0.3410759,0.3730545
		c0.1172447,0.127903,0.2291603,0.218504,0.3570709,0.3250914c0.1278992,0.0959272,0.2611351,0.1918545,0.3997002,0.2717953
		c0.5489235,0.3357487,1.1937752,0.5116186,1.838623,0.5062866c0.0692787-0.0053282,0.1705399,0,0.2451515-0.0106564
		c0.0746078-0.0053301,0.1545486-0.0106583,0.2344856-0.0213175c0.1598854-0.0213194,0.3144341-0.0532932,0.4743195-0.0959282
		c0.3091011-0.0852709,0.6075401-0.2131739,0.8846703-0.3783846c0.2771225-0.1652098,0.5329323-0.3623962,0.7567673-0.5968866
		c0.1119194-0.1172457,0.2291603-0.2504797,0.3410759-0.3730545l0.3464127-0.3783846l0.1065788-0.1172457l0.1279106,0.0852709
		l0.5915565,0.3783827c0.1012573,0.0639524,0.1971893,0.1279058,0.2931137,0.1812
		c0.0905991,0.0532904,0.1918602,0.1012554,0.2931137,0.1438904c0.2025185,0.085269,0.4156914,0.1438913,0.6341934,0.1705379
		c0.1065903,0.0159893,0.223835,0.0266476,0.3304214,0.0213184c0.12257,0,0.2238312-0.0106583,0.3357468-0.0159864
		c0.1119156-0.0159903,0.218502-0.0373068,0.3304176-0.0639534c0.1065903-0.0266476,0.2185059-0.0586224,0.3197632-0.1065865
		c0.1065865-0.0373068,0.2078476-0.0906,0.303772-0.1438942c0.1012573-0.0532923,0.1918602-0.1172457,0.2877846-0.1865263
		c0.0906029-0.0692806,0.175869-0.1438923,0.2611389-0.2238331c0.079937-0.0799408,0.1598778-0.1652098,0.2291641-0.2558088
		c0.0746117-0.0905991,0.1385651-0.1865263,0.1971855-0.2824554c0.0639534-0.0959272,0.1119156-0.2025146,0.1652107-0.3091021
		c-0.0373039,0.1119156-0.0799446,0.218503-0.1279068,0.3250904c-0.053299,0.1065874-0.1065865,0.2131739-0.1705399,0.3091011
		c-0.0639496,0.1012592-0.1385574,0.1918583-0.2131767,0.2824564c-0.074604,0.0905981-0.1652069,0.1758699-0.250473,0.2558107
		c-0.0906029,0.0799408-0.1865273,0.1545496-0.2824593,0.2185011c-0.1012573,0.0639524-0.2025146,0.1279068-0.3144341,0.1812
		c-0.1065865,0.0586205-0.218502,0.1012554-0.3357468,0.1385612c-0.1172447,0.0426331-0.2344856,0.0692806-0.351738,0.090601
		c-0.1225739,0.0213165-0.2504807,0.0373049-0.3623886,0.0426331c-0.1225815,0.0106583-0.2451515,0.0053301-0.367733,0
		c-0.2451515-0.0159883-0.4902954-0.0692806-0.7194557-0.1545506c-0.1172523-0.0426359-0.2291679-0.0905981-0.3410835-0.1492233
		c-0.1065865-0.0586224-0.20784-0.1172438-0.3090973-0.175868l-0.6022186-0.3517361l0.2398224-0.0373049l-0.3357468,0.3890409
		c-0.1119232,0.1279058-0.2185097,0.2558088-0.3410835,0.3890409c-0.1172447,0.133235-0.2504807,0.2558107-0.3890457,0.3730545
		c-0.1385574,0.1119194-0.2824478,0.223834-0.4370041,0.3144341c-0.303772,0.1918554-0.6395187,0.3357477-0.9859314,0.437007
		c-0.175869,0.0479622-0.351738,0.0905991-0.5276031,0.1119156c-0.0905991,0.0159874-0.1811981,0.0213184-0.2717972,0.0319748
		c-0.0959244,0.0106602-0.1652069,0.005331-0.266468,0.0106602c-0.7247925-0.0053291-1.4442558-0.2078447-2.0571327-0.5862284
		c-0.1545486-0.0905991-0.298439-0.2025156-0.4370041-0.3144312c-0.1332283-0.1119175-0.2771225-0.2451515-0.3890381-0.3730545
		c-0.1225815-0.133234-0.2238312-0.261138-0.3410759-0.3890429l-0.3357544-0.3890429l0.2398224,0.0373058l-0.6075478,0.351737
		c-0.1012573,0.0586243-0.1971817,0.1172447-0.3090973,0.175868c-0.1119156,0.0586224-0.2238388,0.1065874-0.3410835,0.1492233
		c-0.2291603,0.0852671-0.4743118,0.1385603-0.7194633,0.1545506c-0.0586205,0.0053282-0.1225739,0.0053282-0.1865273,0.0106573
		c-0.0586166,0-0.1172447,0-0.1811981-0.0053291c-0.12257-0.0053282-0.2451439-0.0213184-0.3623962-0.0426331
		c-0.1172447-0.0266485-0.2398148-0.0532942-0.3517303-0.0905991c-0.1119156-0.0426359-0.2291679-0.0852709-0.3357544-0.1385641
		c-0.1065903-0.0532942-0.2131691-0.1172466-0.3144302-0.1811972c-0.1012573-0.0692816-0.1918602-0.1438942-0.2824554-0.2185049
		c-0.0852661-0.0799389-0.175869-0.1652088-0.2504807-0.2558079s-0.1492195-0.1811981-0.2131729-0.2824554
		c-0.0692825-0.0959282-0.1225739-0.2025156-0.170536-0.309103C34.8667679,13.3402205,34.8241348,13.2283049,34.7868271,13.1163874
		L34.7868271,13.1163874z"/>
</g>
</svg>
